{
  "accessors": [
    {
      "bufferView": 2,
      "componentType": 5126,
      "count": 65532,
      "max": [
        225.2074432373047,
        156.34327697753906,
        622.42578125
      ],
      "min": [
        -241.85845947265625,
        -124.84943389892578,
        3.206299066543579
      ],
      "type": "VEC3"
    },
    {
      "bufferView": 2,
      "byteOffset": 786384,
      "componentType": 5126,
      "count": 65532,
      "max": [
        0.9999987483024597,
        0.9999979734420776,
        0.9996079802513123
      ],
      "min": [
        -0.9999988675117493,
        -0.9999972581863403,
        -0.9998072385787964
      ],
      "type": "VEC3"
    },
    {
      "bufferView": 1,
      "componentType": 5126,
      "count": 65532,
      "max": [
        0.9922530055046082,
        0.9892979860305786
      ],
      "min": [
        0.0019920000340789557,
        0.001978999935090542
      ],
      "type": "VEC2"
    },
    {
      "bufferView": 0,
      "componentType": 5125,
      "count": 328953,
      "type": "SCALAR"
    },
    {
      "bufferView": 2,
      "byteOffset": 1572768,
      "componentType": 5126,
      "count": 65532,
      "max": [
        222.2128143310547,
        156.12449645996094,
        620.692138671875
      ],
      "min": [
        -241.85845947265625,
        -124.78633880615234,
        11.814483642578125
      ],
      "type": "VEC3"
    },
    {
      "bufferView": 2,
      "byteOffset": 2359152,
      "componentType": 5126,
      "count": 65532,
      "max": [
        0.9999762177467346,
        0.9999709725379944,
        0.9982318878173828
      ],
      "min": [
        -0.9999813437461853,
        -0.9999977350234985,
        -0.9998072385787964
      ],
      "type": "VEC3"
    },
    {
      "bufferView": 1,
      "byteOffset": 524256,
      "componentType": 5126,
      "count": 65532,
      "max": [
        0.9980080127716064,
        0.9911839962005615
      ],
      "min": [
        0.0019920000340789557,
        0.0057669999077916145
      ],
      "type": "VEC2"
    },
    {
      "bufferView": 0,
      "byteOffset": 1315812,
      "componentType": 5125,
      "count": 328674,
      "type": "SCALAR"
    },
    {
      "bufferView": 2,
      "byteOffset": 3145536,
      "componentType": 5126,
      "count": 40228,
      "max": [
        223.4765625,
        156.04087829589844,
        622.9331665039063
      ],
      "min": [
        -241.45733642578125,
        -124.70877838134766,
        4.5262451171875
      ],
      "type": "VEC3"
    },
    {
      "bufferView": 2,
      "byteOffset": 3628272,
      "componentType": 5126,
      "count": 40228,
      "max": [
        0.9999765157699585,
        0.9999979734420776,
        0.9996079802513123
      ],
      "min": [
        -0.9999840259552002,
        -0.9999901056289673,
        -0.9958207607269287
      ],
      "type": "VEC3"
    },
    {
      "bufferView": 1,
      "byteOffset": 1048512,
      "componentType": 5126,
      "count": 40228,
      "max": [
        0.9980080127716064,
        0.991258978843689
      ],
      "min": [
        0.0019920000340789557,
        0.001978999935090542
      ],
      "type": "VEC2"
    },
    {
      "bufferView": 0,
      "byteOffset": 2630508,
      "componentType": 5125,
      "count": 140871,
      "type": "SCALAR"
    }
  ],
  "asset": {
    "extras": {
      "author": "Connections XR (https://sketchfab.com/connectionsxr)",
      "license": "CC-BY-4.0 (http://creativecommons.org/licenses/by/4.0/)",
      "source": "https://sketchfab.com/3d-models/regional-campuses-t-shirt-blue-9ce2f12ea09b4b258bdc771b17d55a82",
      "title": "Regional Campuses - T-Shirt - Blue"
    },
    "generator": "Sketchfab-13.74.0",
    "version": "2.0"
  },
  "bufferViews": [
    {
      "buffer": 0,
      "byteLength": 3193992,
      "name": "floatBufferViews",
      "target": 34963
    },
    {
      "buffer": 0,
      "byteLength": 1370336,
      "byteOffset": 3193992,
      "byteStride": 8,
      "name": "floatBufferViews",
      "target": 34962
    },
    {
      "buffer": 0,
      "byteLength": 4111008,
      "byteOffset": 4564328,
      "byteStride": 12,
      "name": "floatBufferViews",
      "target": 34962
    }
  ],
  "buffers": [
    {
      "byteLength": 8675336,
      "uri": "scene.bin"
    }
  ],
  "images": [
    {
      "uri": "textures/material_0_baseColor.png"
    }
  ],
  "materials": [
    {
      "doubleSided": true,
      "name": "material_0",
      "pbrMetallicRoughness": {
        "baseColorTexture": {
          "index": 0
        },
        "metallicFactor": 0.0,
        "roughnessFactor": 0.6
      }
    }
  ],
  "meshes": [
    {
      "name": "Object_0",
      "primitives": [
        {
          "attributes": {
            "NORMAL": 1,
            "POSITION": 0,
            "TEXCOORD_0": 2
          },
          "indices": 3,
          "material": 0,
          "mode": 4
        }
      ]
    },
    {
      "name": "Object_1",
      "primitives": [
        {
          "attributes": {
            "NORMAL": 5,
            "POSITION": 4,
            "TEXCOORD_0": 6
          },
          "indices": 7,
          "material": 0,
          "mode": 4
        }
      ]
    },
    {
      "name": "Object_2",
      "primitives": [
        {
          "attributes": {
            "NORMAL": 9,
            "POSITION": 8,
            "TEXCOORD_0": 10
          },
          "indices": 11,
          "material": 0,
          "mode": 4
        }
      ]
    }
  ],
  "nodes": [
    {
      "children": [
        1
      ],
      "matrix": [
        1.0,
        0.0,
        0.0,
        0.0,
        0.0,
        2.220446049250313e-16,
        -1.0,
        0.0,
        0.0,
        1.0,
        2.220446049250313e-16,
        0.0,
        0.0,
        0.0,
        0.0,
        1.0
      ],
      "name": "Sketchfab_model"
    },
    {
      "children": [
        2,
        3,
        4
      ],
      "name": "UL_RegionalCampusBlue_HR_Geometry.obj.cleaner.materialmerger.gles"
    },
    {
      "mesh": 0,
      "name": "Object_2"
    },
    {
      "mesh": 1,
      "name": "Object_3"
    },
    {
      "mesh": 2,
      "name": "Object_4"
    }
  ],
  "samplers": [
    {
      "magFilter": 9729,
      "minFilter": 9987,
      "wrapS": 10497,
      "wrapT": 10497
    }
  ],
  "scene": 0,
  "scenes": [
    {
      "name": "Sketchfab_Scene",
      "nodes": [
        0
      ]
    }
  ],
  "textures": [
    {
      "sampler": 0,
      "source": 0
    }
  ]
}
