{
  "accessors": [
    {
      "bufferView": 2,
      "componentType": 5126,
      "count": 49286,
      "max": [
        -0.3051414489746094,
        52.65536117553711,
        64.91889953613281
      ],
      "min": [
        -55.160404205322266,
        19.6231632232666,
        -0.600443959236145
      ],
      "type": "VEC3"
    },
    {
      "bufferView": 2,
      "byteOffset": 591432,
      "componentType": 5126,
      "count": 49286,
      "max": [
        0.9999353289604187,
        0.9999585747718811,
        0.9999687671661377
      ],
      "min": [
        -0.9999511241912842,
        -0.9999933242797852,
        -0.9998764395713806
      ],
      "type": "VEC3"
    },
    {
      "bufferView": 1,
      "componentType": 5126,
      "count": 49286,
      "max": [
        0.9925515055656433,
        0.9950000047683716
      ],
      "min": [
        0.004999999888241291,
        0.004999999888241291
      ],
      "type": "VEC2"
    },
    {
      "bufferView": 1,
      "byteOffset": 394288,
      "componentType": 5126,
      "count": 49286,
      "max": [
        0.9977934956550598,
        0.9976170063018799
      ],
      "min": [
        0.002191999927163124,
        0.014406999573111534
      ],
      "type": "VEC2"
    },
    {
      "bufferView": 0,
      "componentType": 5125,
      "count": 232272,
      "type": "SCALAR"
    }
  ],
  "asset": {
    "extras": {
      "author": "Carlos.Maciel (https://sketchfab.com/Carlos.Maciel)",
      "license": "CC-BY-4.0 (http://creativecommons.org/licenses/by/4.0/)",
      "source": "https://sketchfab.com/3d-models/football-shirt-fc-barcelona-a003899747f340fa81cd7146488bca0e",
      "title": "Football Shirt FC Barcelona"
    },
    "generator": "Sketchfab-12.66.0",
    "version": "2.0"
  },
  "bufferViews": [
    {
      "buffer": 0,
      "byteLength": 929088,
      "name": "floatBufferViews",
      "target": 34963
    },
    {
      "buffer": 0,
      "byteLength": 788576,
      "byteOffset": 929088,
      "byteStride": 8,
      "name": "floatBufferViews",
      "target": 34962
    },
    {
      "buffer": 0,
      "byteLength": 1182864,
      "byteOffset": 1717664,
      "byteStride": 12,
      "name": "floatBufferViews",
      "target": 34962
    }
  ],
  "buffers": [
    {
      "byteLength": 2900528,
      "uri": "scene.bin"
    }
  ],
  "images": [
    {
      "uri": "textures/Object001_mtl_baseColor.jpeg"
    }
  ],
  "materials": [
    {
      "doubleSided": true,
      "name": "Object001_mtl",
      "pbrMetallicRoughness": {
        "baseColorTexture": {
          "index": 0
        },
        "metallicFactor": 0.0,
        "roughnessFactor": 0.8929713596497552
      }
    }
  ],
  "meshes": [
    {
      "name": "Object001_Object001_mtl_0",
      "primitives": [
        {
          "attributes": {
            "NORMAL": 1,
            "POSITION": 0,
            "TEXCOORD_0": 2,
            "TEXCOORD_1": 3
          },
          "indices": 4,
          "material": 0,
          "mode": 4
        }
      ]
    }
  ],
  "nodes": [
    {
      "children": [
        1
      ],
      "matrix": [
        0.01670418307185173,
        0.0,
        0.0,
        0.0,
        0.0,
        3.709073730784713e-18,
        -0.01670418307185173,
        0.0,
        0.0,
        0.01670418307185173,
        3.709073730784713e-18,
        0.0,
        0.0,
        0.0,
        0.0,
        1.0
      ],
      "name": "Sketchfab_model"
    },
    {
      "children": [
        2
      ],
      "matrix": [
        1.0,
        0.0,
        0.0,
        0.0,
        0.0,
        0.0,
        1.0,
        0.0,
        0.0,
        -1.0,
        0.0,
        0.0,
        0.0,
        0.0,
        0.0,
        1.0
      ],
      "name": "Shirt.fbx"
    },
    {
      "children": [
        3
      ],
      "name": "RootNode"
    },
    {
      "children": [
        4
      ],
      "matrix": [
        1.0,
        0.0,
        0.0,
        0.0,
        0.0,
        2.220446049250313e-16,
        -1.0,
        0.0,
        0.0,
        1.0,
        2.220446049250313e-16,
        0.0,
        -27.732772827148438,
        -0.600443959236145,
        -36.13926315307617,
        1.0
      ],
      "name": "Object001"
    },
    {
      "children": [
        5
      ],
      "matrix": [
        1.0,
        0.0,
        -0.0,
        0.0,
        0.0,
        1.0,
        0.0,
        0.0,
        0.0,
        0.0,
        1.0,
        0.0,
        27.732772827148438,
        -36.13926315307617,
        0.600443959236145,
        1.0
      ],
      "name": "Object_4"
    },
    {
      "mesh": 0,
      "name": "Object001_Object001_mtl_0"
    }
  ],
  "samplers": [
    {
      "magFilter": 9729,
      "minFilter": 9987,
      "wrapS": 10497,
      "wrapT": 10497
    }
  ],
  "scene": 0,
  "scenes": [
    {
      "name": "Sketchfab_Scene",
      "nodes": [
        0
      ]
    }
  ],
  "textures": [
    {
      "sampler": 0,
      "source": 0
    }
  ]
}
